<?xml version="1.0" encoding="utf-8"?>
<svg version="1.1" id="Layer_1" xmlns="http://www.w3.org/2000/svg" xmlns:xlink="http://www.w3.org/1999/xlink" x="0px" y="0px"
	 viewBox="0 0 295 80" style="enable-background:new 0 0 295 80;" xml:space="preserve">
<style type="text/css">
	.st0{fill:#DA291C;}
</style>
<title>Seneca | Because it matters. | 50 Years</title>
<path class="st0" d="M10.8,41.3c3.2,0,5.1-1.6,5.1-3.7c0-3.2-3.5-4.1-8.2-6.5s-7.1-5.8-7.1-9.8c0-5.7,4.6-9.8,12.4-9.8
	c2.9,0,5.8,0.5,8.5,1.6v5.7c-2.9-1.4-5.1-2.3-7-2.3c-2.7,0-4.4,1.5-4.4,3.3c0,2.8,3.6,3.8,9.4,7c3.9,2.1,5.7,5.1,5.7,9.1
	c0,6.3-5.3,10.7-13.3,10.7c-3.4-0.1-6.8-0.7-10-1.8L0,37.5C3.9,39.9,7.3,41.3,10.8,41.3"/>
<path class="st0" d="M40.1,25.6c-2,0-3.3,1.3-3.4,3.8h6.5C43.2,26.9,42.1,25.6,40.1,25.6 M36.5,33.9c0,0.3,0,0.6,0,0.9
	c0,4.4,2.8,6.9,7.5,6.9c2.3,0,5-1,8.5-2.6l-1.8,5.9c-2.9,1.1-6,1.7-9.1,1.7c-9.1,0-14.5-5.1-14.5-12.7s5.6-13,13.3-13
	c6.8,0,11.8,4.8,11.8,12.3v0.7L36.5,33.9z"/>
<path class="st0" d="M55.3,41.4v-15c0.2-1.7-0.5-3.4-1.7-4.6h2.3c2.7,0,5.5-0.1,8.1-0.6l0.2,2.5c1.7-1.5,4-2.4,6.3-2.4
	c5.3,0,8.8,3.4,8.8,8.9v11.1c-0.2,1.7,0.5,3.4,1.7,4.5H68.7c1.2-1.2,1.9-2.8,1.7-4.5v-7.8c0-4.7-0.6-7.2-3.2-7.2s-2.9,2.5-2.9,7.2
	v7.8c-0.2,1.7,0.5,3.4,1.7,4.5H53.6C54.8,44.8,55.5,43.1,55.3,41.4"/>
<path class="st0" d="M95.1,25.6c-2,0-3.3,1.3-3.4,3.8h6.5C98.3,26.9,97.2,25.6,95.1,25.6 M91.6,33.9c0,0.3-0.1,0.6-0.1,0.9
	c0,4.4,2.8,6.9,7.5,6.9c2.3,0,5-1,8.5-2.6l-1.8,5.9c-2.9,1.1-6,1.7-9.1,1.7c-9.1,0-14.5-5.1-14.5-12.7s5.6-13,13.3-13
	c6.8,0,11.8,4.8,11.8,12.3v0.7L91.6,33.9z"/>
<path class="st0" d="M131.8,45c-2.5,1.1-5.2,1.7-8,1.7c-8.5,0-13.9-5.4-13.9-12.5c0-7.6,5.8-13.1,14.8-13.1c1.9,0.1,3.8,0.2,5.7,0.6
	v6c-1.5-0.9-3.2-1.5-5-1.6c-3.4,0-5.6,2.5-5.6,7c0,5.2,2.6,8.4,6.9,8.4c2.4-0.1,4.8-0.9,6.9-2.1L131.8,45z"/>
<path class="st0" d="M143.2,38.8c0,1.8,1.3,3,3.5,3h0.4l-2.1,4.5c-1.4,0.1-2.4,0.2-3,0.2c-5,0-8.5-3.3-8.5-7.6
	c0-3.8,2.4-6.1,7.1-7.3c4.5-1.1,7.4-1,7.4-3.4c0-1.5-1.1-2.3-3.2-2.3c-2.2,0.1-4.4,0.5-6.5,1.4l2.4-5.4c1.9-0.6,3.8-0.9,5.7-0.9
	c4,0,6.8,0.8,8.7,2.7c2.1,2.2,2.2,4.9,2.2,8.4v6.1c0,2.6,0.9,3.4,3.8,3.8l-1.9,4.3c-1.3,0.1-2.3,0.2-2.9,0.2c-4.9,0-8.4-3-8.4-7.5
	v-4.3C144.8,35.9,143.2,36.8,143.2,38.8"/>
<path class="st0" d="M164.5,72.7c0.6,0,1.1-0.4,1.1-1c0,0,0-0.1,0-0.1c0-0.6-0.5-1.1-1.1-1.1c-0.6,0-1.1,0.5-1.1,1.1c0,0,0,0,0,0
	c-0.1,0.5,0.3,1.1,0.9,1.1C164.4,72.7,164.4,72.7,164.5,72.7 M161.1,64.5c-0.1-0.8-0.2-1.6-0.4-2.5c-0.6-0.3-1.3-0.4-2.1-0.4
	c-1.8-0.2-3.4,1.2-3.5,2.9c0,0,0,0.1,0,0.1c0,1.8,1.5,2.7,2.8,3.3s2,1.3,2,2.4c0.1,0.9-0.6,1.7-1.6,1.8c-0.1,0-0.1,0-0.2,0
	c-1.5,0-2.7-1.5-3.1-3.1l-0.3,0.1c0,0.9,0.2,1.9,0.4,2.8c0.8,0.5,1.7,0.7,2.6,0.7c1.9,0,3.8-1.2,3.8-3.3c0-1.5-1.1-2.4-2.9-3.2
	c-1-0.4-2-1.1-2-2.3c-0.1-0.9,0.6-1.7,1.5-1.7c0,0,0.1,0,0.1,0c1.3,0,2.2,1.1,2.6,2.4L161.1,64.5z M149.8,64.3v-2.7
	c-1,0.5-2.1,0.8-3.2,1v0.2c1.3,0.2,1.5,0.3,1.5,1.9v5.4c0,1.7-0.2,1.9-1.6,2v0.3h5.3v-0.3c-1.8-0.1-2-0.3-2-2v-5
	c0.6-1.3,1.3-1.9,1.8-1.9c0.4,0,0.8,0.2,1.1,0.5c0.1,0.1,0.3,0.2,0.6,0c0.4-0.2,0.7-0.6,0.7-1c-0.1-0.7-0.6-1.1-1.3-1.1
	C151.5,61.6,150.4,63.2,149.8,64.3L149.8,64.3z M141.2,62.3c1.3,0,2.3,1.1,2.2,2.4c0,0.1,0,0.2,0,0.2c0,0.3-0.1,0.4-0.5,0.4
	c-1.4,0-2.8,0-4.2,0C139,63.3,140.1,62.2,141.2,62.3 M145,70c-0.7,0.7-1.6,1.2-2.7,1.2c-1.8,0-3.8-1.4-3.8-5.2
	c3-0.1,5.8-0.3,6.2-0.4s0.5-0.2,0.5-0.6c-0.1-1.8-1.6-3.3-3.4-3.4l0,0c-1.3,0.1-2.6,0.7-3.4,1.8c-1,1.1-1.6,2.6-1.6,4.2
	c0,2.7,1.7,5.1,4.6,5.1c1.5-0.2,2.9-1.1,3.7-2.4L145,70z M136.2,71.5l-0.1-0.3c-0.4,0.2-0.9,0.4-1.4,0.4c-0.6,0-1.5-0.4-1.5-2.4
	v-6.5h2.6c0.2-0.1,0.3-0.4,0.2-0.6c0,0,0-0.1-0.1-0.1h-2.7v-3.5h-0.2l-1.5,1.5v2h-1l-0.6,0.5v0.2h1.6v7.2c0,1.9,0.8,2.8,2.3,2.8
	c0.3,0,0.5-0.1,0.7-0.3L136.2,71.5z M129.6,71.5l-0.1-0.3c-0.4,0.2-0.9,0.4-1.4,0.4c-0.6,0-1.5-0.4-1.5-2.4v-6.5h2.6
	c0.2-0.1,0.3-0.4,0.2-0.6c0,0,0-0.1-0.1-0.1h-2.7v-3.5h-0.2l-1.5,1.5v2h-1l-0.6,0.5v0.2h1.6v7.2c0,1.9,0.8,2.8,2.3,2.8
	c0.3,0,0.5-0.1,0.7-0.3L129.6,71.5z M119.6,70.6c-0.5,0.5-1.1,0.8-1.8,0.9c-1,0-1.8-0.9-1.8-1.9c0,0,0,0,0-0.1
	c0-0.9,0.5-1.4,1.4-1.8c0.5-0.3,1.7-0.8,2.2-1.1L119.6,70.6z M123.2,71.4l-0.1-0.3c-0.2,0.2-0.5,0.3-0.8,0.3c-0.5,0-0.9-0.4-0.9-1.4
	v-4.6c0.1-1.1-0.3-2.2-1.1-3c-0.5-0.4-1.2-0.6-1.8-0.6c-1.2,0.4-2.4,0.9-3.5,1.7c-0.4,0.3-0.7,0.6-0.7,0.9c0,0.5,0.5,0.9,1,0.9
	c0.3,0,0.5-0.2,0.6-0.5c0.1-0.6,0.3-1.2,0.7-1.6c0.3-0.3,0.7-0.5,1.1-0.5c1.3,0,2.1,1,2.1,2.9v0.6c-1.2,0.7-2.4,1.2-3.8,1.6
	c-1.3,0.4-1.8,1.1-1.8,2.3c0,1.5,1.3,2.8,2.8,2.8c1-0.4,1.9-0.9,2.7-1.6c0.1,0.4,0.3,0.8,0.5,1.1c0.3,0.3,0.8,0.5,1.2,0.5
	L123.2,71.4z M113,72.4v-0.3c-1.3-0.2-1.5-0.2-1.5-2v-4.9c0-2.3-1.1-3.6-2.9-3.6c-0.6,0-1.2,0.3-1.7,0.6c-0.7,0.4-1.4,0.8-2,1.3
	c-0.3-1.2-1.4-2-2.6-2c-0.7,0-1.4,0.3-2,0.7c-0.7,0.4-1.2,0.8-1.6,1.1v-1.8c-1,0.4-2.1,0.8-3.2,1v0.3c1.3,0.3,1.4,0.4,1.4,2v5.3
	c0,1.7-0.3,1.9-1.8,2v0.3h5v-0.3c-1.3-0.1-1.4-0.3-1.4-2V64c0.7-0.6,1.5-1,2.5-1.1c1.7,0,2.2,1.1,2.2,2.9v4.4c0,1.7-0.2,1.9-1.7,2
	v0.3h4.9v-0.3c-1.3-0.1-1.5-0.3-1.5-2v-5c0-0.4,0-0.8-0.1-1.2c0.7-0.7,1.6-1.1,2.6-1.2c1.7,0,2.2,1.2,2.2,2.9v4.1
	c0,1.9-0.2,2.1-1.7,2.2v0.3L113,72.4z M90.1,71.5L90,71.2c-0.4,0.2-0.9,0.4-1.4,0.4c-0.6,0-1.5-0.4-1.5-2.4v-6.5h2.6
	c0.2-0.1,0.3-0.4,0.2-0.6c0,0,0-0.1-0.1-0.1h-2.7v-3.5h-0.2L85.3,60v2h-1l-0.6,0.5v0.2h1.6v7.2c0,1.9,0.8,2.8,2.3,2.8
	c0.3,0,0.5-0.1,0.7-0.3L90.1,71.5z M83.3,72.4v-0.3c-1.5-0.2-1.7-0.3-1.7-2v-8.5c-1,0.5-2.1,0.8-3.2,1v0.3c1.3,0.3,1.4,0.4,1.4,1.9
	v5.4c0,1.7-0.2,1.9-1.6,2v0.3L83.3,72.4z M80.7,59.2c0.6,0,1-0.4,1-1s-0.4-1-1-1s-1,0.4-1,1S80.1,59.2,80.7,59.2 M68.7,62.3
	c1.3,0,2.3,1.1,2.2,2.4c0,0.1,0,0.2,0,0.2c0,0.3-0.1,0.4-0.5,0.4c-1.4,0-2.8,0-4.2,0C66.5,63.3,67.6,62.3,68.7,62.3 M72.5,70
	c-0.7,0.7-1.6,1.2-2.7,1.2c-1.8,0-3.8-1.4-3.8-5.2c3-0.1,5.8-0.3,6.2-0.4s0.5-0.2,0.5-0.6c-0.1-1.8-1.6-3.3-3.4-3.4l0,0
	c-1.3,0.1-2.6,0.7-3.4,1.8c-1,1.1-1.6,2.6-1.6,4.2c0,2.7,1.7,5.1,4.6,5.1c1.5-0.2,2.9-1.1,3.7-2.4L72.5,70z M62.3,64.5
	c-0.1-0.8-0.2-1.6-0.4-2.5c-0.6-0.3-1.3-0.4-2.1-0.4c-1.8-0.2-3.4,1.2-3.5,2.9c0,0,0,0.1,0,0.1c0,1.8,1.5,2.7,2.8,3.3s2,1.3,2,2.4
	c0.1,0.9-0.6,1.7-1.6,1.8c-0.1,0-0.1,0-0.2,0c-1.5,0-2.7-1.5-3.1-3.1L56,69.2c0,0.9,0.2,1.9,0.4,2.8c0.8,0.5,1.7,0.7,2.6,0.7
	c1.9,0,3.8-1.2,3.8-3.3c0-1.5-1.1-2.4-2.9-3.2c-1-0.4-2-1.1-2-2.3c-0.1-0.9,0.6-1.7,1.5-1.7c0,0,0.1,0,0.1,0c1.3,0,2.2,1.1,2.6,2.4
	L62.3,64.5z M54.9,71.6h-0.6c-0.9-0.1-1.1-0.3-1.1-1.4v-8.3c-0.5,0.1-1.1,0.2-1.6,0.3c-0.6,0-1.3,0.1-1.9,0.2v0.2l0.8,0.2
	c0.8,0.2,1,0.3,1,1.5v6.1c-0.7,0.7-1.6,1.2-2.7,1.2c-1.1,0-2.1-0.6-2.1-2.8v-3.4c0-2,0-2.8,0.1-3.4c-0.4,0.1-1,0.2-1.6,0.3
	s-1.2,0.1-1.6,0.2v0.2l0.6,0.2c0.7,0.2,0.8,0.3,0.8,1.5v5.2c0,2.4,1.3,3.4,2.9,3.4c0.7,0,1.3-0.3,1.8-0.6c0.6-0.4,1.2-0.9,1.8-1.3
	v1.8l0.2,0.2c0.4-0.1,1-0.3,1.6-0.5c0.6-0.2,1.1-0.3,1.7-0.4L54.9,71.6z M39.8,70.6c-0.5,0.5-1.1,0.8-1.8,0.9c-1,0-1.8-0.9-1.8-1.9
	c0,0,0-0.1,0-0.1c0-0.9,0.5-1.4,1.4-1.8c0.5-0.3,1.7-0.8,2.2-1.1L39.8,70.6z M43.3,71.4l-0.1-0.3c-0.2,0.2-0.5,0.3-0.8,0.3
	c-0.5,0-0.9-0.4-0.9-1.4v-4.7c0.1-1.1-0.3-2.2-1.1-3c-0.5-0.4-1.2-0.6-1.8-0.6c-1.3,0.4-2.5,0.9-3.6,1.7c-0.4,0.3-0.7,0.6-0.7,0.9
	c0,0.5,0.5,0.9,1,0.9c0.3,0,0.5-0.2,0.6-0.5c0.1-0.6,0.3-1.2,0.7-1.7c0.3-0.3,0.7-0.5,1.1-0.5c1.3,0,2.1,1,2.1,2.9v0.6
	c-1.2,0.7-2.4,1.2-3.7,1.6c-1.3,0.4-1.8,1.1-1.8,2.3c0,1.5,1.3,2.8,2.8,2.8c1-0.4,1.9-0.9,2.7-1.6c0.1,0.4,0.3,0.8,0.5,1.1
	c0.3,0.3,0.8,0.5,1.2,0.5L43.3,71.4z M32.9,69.9c-0.7,0.9-1.8,1.4-3,1.3c-1.3,0-3.7-1.2-3.7-4.7c0-2.8,1.4-3.9,3-3.9
	c0.9,0,1.8,0.4,2.4,1c0.3,0.2,0.3,0.3,0.5,0.3c0.4-0.1,0.7-0.5,0.7-0.9c0-0.3-0.1-0.5-0.4-0.7c-0.6-0.4-1.3-0.7-2-0.7l0,0
	c-1.2,0.1-2.4,0.5-3.4,1.3c-1.5,1.1-2.4,2.9-2.4,4.8c-0.1,2.6,1.9,4.8,4.5,4.9c0.1,0,0.1,0,0.2,0c1.4,0,2.9-1.1,3.9-2.5L32.9,69.9z
	 M19.1,62.3c1.3,0,2.3,1.1,2.2,2.4c0,0.1,0,0.2,0,0.2c0,0.3-0.1,0.4-0.5,0.4c-1.4,0-2.8,0-4.2,0C16.9,63.3,18,62.3,19.1,62.3
	 M22.9,70c-0.7,0.7-1.6,1.2-2.7,1.2c-1.8,0-3.8-1.4-3.8-5.2c3-0.1,5.8-0.3,6.2-0.4s0.5-0.2,0.5-0.6c-0.1-1.8-1.6-3.3-3.4-3.4l0,0
	c-1.3,0.1-2.6,0.7-3.5,1.8c-1,1.1-1.6,2.6-1.6,4.2c0,2.7,1.7,5.1,4.6,5.1c1.5-0.2,2.9-1.1,3.7-2.4L22.9,70z M4.8,64.2h1
	c3.2,0,4.7,1.3,4.7,3.9c0.2,1.9-1.2,3.6-3.1,3.8c-0.2,0-0.4,0-0.6,0c-1.4,0-2-0.5-2-2.4L4.8,64.2z M4.8,63.8v-5.2
	c0-0.9,0.1-1.2,0.4-1.3C5.6,57,6,57,6.5,57c2.4,0,3.2,1.7,3.2,3.4c0,2.1-0.9,3.3-3.9,3.3L4.8,63.8z M8.2,63.9
	c1.6-0.4,3.6-1.4,3.6-3.8c0-1.1-0.5-2.1-1.3-2.7c-1.1-0.7-2.4-1-3.7-0.8H1v0.3c1.8,0.2,1.9,0.3,1.9,2.4v10.4c0,2.1-0.2,2.3-2.2,2.5
	v0.3h5.1c1.6,0.1,3.2-0.3,4.7-1c1.4-0.7,2.2-2.1,2.2-3.6C12.8,65.4,10.8,64.2,8.2,63.9L8.2,63.9z"/>
<path class="st0" d="M228.7,23.8l0.6-0.3l0.3-0.1c4.8-5.8,10.3-11.1,16.2-15.8c1.1-0.9,2.3-1.7,3.4-2.5L249,5.1l-5.3,2.6l-13.6,6.7
	l0,0l-2.2,1.2l0,0l-4.4,2.3l-0.8,0.5c-10.4,5.8-10.8,22-10.8,22C216.5,30,223.2,26.5,228.7,23.8z"/>
<path class="st0" d="M242.7,18.2l0.1,0.6c3.4-5.1,5.9-9.8,6.7-12.6c-1,0.7-2,1.5-3,2.2c-5.5,4.3-10.5,9.1-15,14.4l0.3,1.8l0.1,0.7
	l0,0l1,5.6l0.4-0.3c1.2-1.2,2.4-2.5,3.5-3.8l-0.5-3.7l1.2-1.4l0.2,1.4l0.3,2.2c0.4-0.5,0.8-1,1.3-1.6l-0.4-3l1.2-1.4l0.2,1.4
	l0.2,1.5c0.4-0.6,0.8-1.1,1.3-1.7l-0.3-2.3l1.2-1.4L242.7,18.2z"/>
<path class="st0" d="M265.4,50.7c-3.2,0-6.4-1.1-8.9-3.2c-0.1,1.8-0.6,3.5-1.3,5c3,2,6.6,3,10.2,3c10.5,0,19.1-8.5,19.1-19
	s-8.5-19.1-19-19.1c-9.1,0-16.9,6.4-18.7,15.2c1.7,0.7,3.3,1.7,4.8,2.9c0.7-7.7,7.5-13.4,15.2-12.7c7.7,0.7,13.4,7.5,12.7,15.2
	C278.8,45.2,272.7,50.7,265.4,50.7L265.4,50.7z"/>
<path class="st0" d="M265.4,11c-8.2,0-15.9,4.1-20.4,10.9c-0.2,0.3-0.4,0.6-0.6,1c-0.4,0.6-0.7,1.2-1,1.8c-0.2,0.3-0.3,0.6-0.4,1
	c-0.3,0.6-0.5,1.2-0.7,1.8l-0.2,0.5c-0.4,1.1-0.7,2.3-0.9,3.5c1.6,0.1,3.1,0.4,4.6,0.8l0.2,0.1c2.3-10.8,12.9-17.6,23.6-15.3
	s17.6,12.9,15.3,23.6c-2.3,10.8-12.9,17.6-23.6,15.3c-2.3-0.5-4.5-1.4-6.5-2.6c-0.7,1.2-1.4,2.4-2.3,3.5c11.7,7,26.8,3.2,33.9-8.5
	c7-11.7,3.2-26.8-8.5-33.9C274.1,12.2,269.8,11,265.4,11z"/>
<path class="st0" d="M233.4,69.2l1-0.4l1.1-0.5l0,0c0.7-0.3,1.4-0.6,2-1c1.1-0.5,2.1-1.1,3.1-1.7l0.8-0.5l0,0c2-1.2,3.9-2.7,5.6-4.3
	c1-0.9,1.9-1.9,2.8-3c0.8-1.2,2-3.3,0.8-5.4c0.7,0.7,1.2,1.6,1.5,2.5c1.7-2.3,2.7-5,2.9-7.9c0.1-0.7,0.1-1.5,0-2.2
	c-0.1-0.8-0.9-4.3-4.5-4.8c1.2-0.1,2.3,0.2,3.4,0.6c-0.5-1-1.1-2-1.9-2.8c-1.9-2-4.2-3.5-6.8-4.4c0,0-10.5-3.3-23.2,2.2
	c-0.6,0.3-1.2,0.6-1.9,0.9l-1.1,0.5c-1.9,1-3.7,2.1-5.4,3.4c1.5-0.7,3-1.3,4.6-1.8l0.7-0.2c0.5-0.2,1.1-0.4,1.6-0.5
	c3.6-1.1,7.4-1.8,11.2-2c2.6-0.2,5.2-0.1,7.8,0.3c6.6,0.9,10.8,6,10.3,12.3c-0.5,6.7-5.9,11.9-9.7,14.8c0.6,0.5,2.2,0.1,2.2,0.1
	c-0.4,0.4-1,0.7-1.6,0.7c-1.2,0.2-2.5,0.3-3.8,0.2h-0.1l1.7-1.2c3.7-2.6,9.7-7.9,10.2-14.8c0.4-5.8-3.4-10.5-9.4-11.3
	c-1.3-0.2-2.6-0.3-3.9-0.3c-1,0-2,0-3,0c4.3,0.5,8,3.2,9.8,7.1c0.1,0.1,0.1,0.2,0.2,0.4s0.2,0.5,0.3,0.8s0.1,0.3,0.2,0.5l0,0
	c0.1,0.4,0.2,0.8,0.3,1.2c1.1,0.7,2.5,1.8,2.5,2.8c-0.5-0.8-1.4-1.2-2.4-1.2c-0.1,2.9-1,5.7-2.7,8.1c-0.6,0.9-1.3,1.7-2,2.5
	c-2.3,2.4-4.8,4.6-7.4,6.7l0,0c-1.1,0.8-2.2,1.6-3.4,2.2c-3.8,1.9-7.6,3.6-11.6,5.1c1.7,0,3.5-0.2,5.2-0.5c1.4-0.2,2.8-0.5,4.2-0.8
	s2.8-0.7,4.2-1.1C230.9,70.2,232.2,69.7,233.4,69.2z"/>
<polygon class="st0" points="255,72.9 255,70.4 257.5,66.3 255.5,66.3 254.1,68.7 252.8,66.3 250.7,66.3 253.2,70.4 253.2,72.9 "/>
<polygon class="st0" points="259.6,72.9 264.9,72.9 264.9,71.3 261.4,71.3 261.4,70.3 264.5,70.3 264.5,68.8 261.4,68.8 261.4,67.8
	264.9,67.8 264.9,66.3 259.6,66.3 "/>
<path class="st0" d="M272.2,72.9h2l-2.8-6.6h-1.8l-2.8,6.6h1.9l0.5-1.2h2.5L272.2,72.9z M269.8,70.3l0.7-1.9l0.7,1.9H269.8z"/>
<path class="st0" d="M281.8,69.8c0.3-0.4,0.4-0.8,0.4-1.3l0,0c0-0.6-0.2-1.1-0.6-1.5c-0.2-0.2-0.5-0.4-0.9-0.5
	c-0.4-0.1-0.9-0.2-1.3-0.2h-3.1v6.6h1.8v-2h0.8l1.3,2h2.1l-1.6-2.3C281.2,70.4,281.6,70.1,281.8,69.8z M280.3,68.7
	c0,0.2-0.1,0.4-0.3,0.6c-0.2,0.2-0.5,0.2-0.7,0.2h-1.2v-1.6h1.2c0.3,0,0.5,0.1,0.7,0.2C280.3,68.2,280.4,68.4,280.3,68.7L280.3,68.7
	z"/>
<path class="st0" d="M289.2,69.4c-0.2-0.2-0.5-0.3-0.8-0.4c-0.3-0.1-0.7-0.2-1-0.3c-0.2,0-0.4-0.1-0.6-0.1c-0.1,0-0.2-0.1-0.4-0.1
	c-0.1,0-0.1-0.1-0.2-0.2c0-0.1-0.1-0.1,0-0.2l0,0c0-0.1,0.1-0.2,0.2-0.3c0.2-0.1,0.3-0.1,0.5-0.1c0.3,0,0.6,0.1,0.9,0.2
	c0.3,0.1,0.6,0.3,0.9,0.5l0.9-1.3c-0.4-0.3-0.8-0.5-1.2-0.7c-0.5-0.2-1-0.2-1.5-0.2c-0.4,0-0.7,0-1.1,0.2c-0.3,0.1-0.6,0.2-0.8,0.4
	c-0.2,0.2-0.4,0.4-0.5,0.7c-0.1,0.3-0.2,0.6-0.2,0.8l0,0c0,0.3,0.1,0.6,0.2,0.8c0.1,0.2,0.3,0.4,0.5,0.6c0.2,0.2,0.5,0.3,0.8,0.4
	c0.3,0.1,0.6,0.2,1,0.3c0.2,0,0.4,0.1,0.5,0.1c0.1,0,0.2,0.1,0.3,0.2c0.1,0,0.1,0.1,0.2,0.2c0,0.1,0,0.1,0,0.2l0,0
	c0,0.1-0.1,0.3-0.2,0.3c-0.2,0.1-0.4,0.1-0.6,0.1c-0.8,0-1.5-0.3-2.1-0.8l-1,1.2c0.4,0.4,0.9,0.6,1.4,0.8c0.5,0.2,1.1,0.3,1.7,0.3
	c0.4,0,0.7,0,1.1-0.2c0.3-0.1,0.6-0.2,0.8-0.4c0.2-0.2,0.4-0.4,0.5-0.7c0.1-0.3,0.2-0.6,0.2-0.9l0,0c0-0.3,0-0.6-0.2-0.8
	C289.6,69.8,289.4,69.6,289.2,69.4z"/>
<rect x="188.7" y="20.8" class="st0" width="0.9" height="51.9"/>
</svg>
